<svg width="84" height="36" viewBox="0 0 84 36" fill="none" xmlns="http://www.w3.org/2000/svg">
<path fill-rule="evenodd" clip-rule="evenodd" d="M18.4957 11.2909L18.5093 11.3022L18.6466 11.4164L18.7568 11.5084L19.2447 11.9142L19.2456 23.2519C16.647 25.3976 14.0322 27.5236 11.4017 29.6295C11.2348 29.6129 6.90209 26.0495 4.70117 24.2393L4.6397 24.1887C4.07563 23.7248 3.66103 23.3839 3.50771 23.2601L3.5 11.9204L11.3359 5.5C11.5913 5.53618 16.4831 9.61311 18.4957 11.2909ZM15.112 13.6072L15.1032 13.5931L15.1018 13.5905L15.0896 13.5708C13.8018 11.4871 11.5459 7.83734 11.3529 7.69883L6.80615 14.9434L6.81636 19.9725L7.73061 21.4727C8.13093 21.5297 8.53464 21.595 8.93972 21.6604C9.76144 21.7932 10.5886 21.9268 11.4044 21.9946L11.8977 21.921L12.4926 21.8313C13.333 21.7042 14.1735 21.5772 15.0154 21.4646L15.9326 20.0401L15.9322 14.9291C15.8228 14.7576 15.5171 14.2628 15.112 13.6072ZM16.2719 15.5375C16.5919 15.9374 16.8668 16.4279 17.1331 16.9031C17.21 17.04 17.286 17.1755 17.3622 17.3073C17.4 17.3729 17.4379 17.4375 17.476 17.5008L17.3234 17.75L17.1648 18.0077C17.0265 18.2315 16.8875 18.4547 16.7473 18.6774L16.2633 19.4626C16.2628 19.0851 16.2597 18.7068 16.2565 18.3283C16.2488 17.3975 16.2413 16.465 16.2719 15.5375ZM12.6441 6.91605C12.2681 6.58575 11.8068 6.18076 11.5301 6.06273L11.5385 6.43492C11.5453 6.72721 11.5521 7.01954 11.5546 7.31176C12.9989 9.6426 14.4552 11.966 15.9235 14.2819C15.9233 14.2107 15.9201 14.0992 15.9163 13.9626V13.9556V13.9484V13.9446V13.94C15.8988 13.2874 15.8671 12.1008 16.0335 11.9259C16.0378 11.9211 16.0426 11.9167 16.0478 11.9125L16.0603 11.9024L16.0728 11.8922L16.2195 11.9564C16.3327 12.472 16.3055 13.2764 16.2812 13.9931L16.2808 14.0035L16.2794 14.0473C16.2696 14.3459 16.2606 14.6274 16.2633 14.8639C16.4563 15.1869 16.6543 15.508 16.8525 15.8293C17.1968 16.3873 17.5413 16.9459 17.8607 17.516L16.2656 20.0773L16.2694 21.7188V22.9828L18.9149 22.9843L18.9092 12.0752C16.9702 10.4439 15.0122 8.83589 13.0349 7.25151L12.9739 7.20157L12.9179 7.15441C12.8358 7.0845 12.743 7.00285 12.6441 6.91605ZM11.1493 6.0834L11.1871 6.11588C11.2636 6.34285 11.2423 6.69323 11.2239 6.99662C11.2171 7.10797 11.2107 7.213 11.2096 7.30326L6.79663 14.3459C6.79776 14.237 6.80094 14.122 6.80525 14.003L6.80933 13.8939L6.81817 13.6805C6.84063 13.1483 6.86467 12.5767 6.80547 12.1291C6.78892 12.0038 6.75149 11.9585 6.65442 11.8851L6.55236 11.9044C6.39813 12.1443 6.44236 13.6294 6.4664 14.4385L6.47343 14.6887C6.47547 14.7621 6.47683 14.8231 6.47728 14.8689C5.94769 15.7345 5.42536 16.6044 4.90983 17.4784L6.48046 20.054L6.47388 21.5269L6.46867 22.9847L3.83114 22.9809L3.84112 12.081C5.41243 10.7256 7.03273 9.41775 8.65167 8.11111C9.487 7.43701 10.3219 6.76323 11.1493 6.0834ZM9.45616 22.0666C8.9599 21.9781 8.46411 21.8897 7.9708 21.8498L8.35229 22.4623C9.36929 24.0944 10.3888 25.7311 11.3613 27.3879C11.8544 26.5925 12.3427 25.7943 12.8254 24.9932C13.0438 24.6411 13.2604 24.2876 13.477 23.934C13.9059 23.2337 14.3352 22.5332 14.7786 21.8431C14.5024 21.8822 14.1737 21.9389 13.824 21.9992C12.956 22.149 11.9574 22.3213 11.3046 22.3036C10.6916 22.2868 10.0737 22.1767 9.45616 22.0666ZM6.79912 21.6728L7.54622 21.7807C8.04701 22.6114 8.55642 23.4369 9.06582 24.2625L9.06786 24.2662L9.08147 24.2884C9.79546 25.4461 10.5094 26.6039 11.2001 27.7759C11.1996 27.9585 11.2001 28.1411 11.2017 28.3237C11.2037 28.5855 11.2076 28.8474 11.2134 29.109L9.72424 27.8901L4.10285 23.3047C4.7336 23.3135 5.36503 23.3116 5.99623 23.3097C6.26273 23.3089 6.52922 23.3081 6.79549 23.3081C6.81024 22.7636 6.80026 22.2177 6.79912 21.6728ZM15.7471 21.6974L15.7192 21.7001L15.2021 21.7797L11.5448 27.7318L11.5305 29.1047C11.7662 28.9126 12.0021 28.7211 12.2386 28.5302C12.5346 28.2912 12.8315 28.0531 13.1288 27.8157C14.9796 26.3306 16.8153 24.8272 18.6361 23.3052L15.936 23.3081C15.9376 23.1875 15.9426 23.0618 15.9478 22.9336L15.9485 22.9225C15.965 22.5243 15.9825 22.1032 15.9029 21.7404C15.8319 21.6871 15.8228 21.6882 15.7682 21.6949L15.7471 21.6974ZM6.47955 19.3L6.47842 19.4223L6.08763 18.7839C5.92161 18.4787 5.73608 18.1794 5.55123 17.8815C5.4689 17.7486 5.3868 17.616 5.30651 17.4833C5.53468 17.055 5.7853 16.6362 6.03569 16.218L6.22712 15.8978C6.29017 15.7915 6.35299 15.6851 6.41491 15.5785C6.54578 15.7776 6.50677 17.8332 6.48681 18.8837C6.48363 19.0523 6.48091 19.195 6.47955 19.3ZM15.5774 21.3364L15.6452 21.2154C15.7645 21.0015 15.8845 20.7867 16.0392 20.5962C16.053 20.7929 16.0385 21.0607 16.0031 21.2218C15.8092 21.293 15.7305 21.3182 15.5774 21.3364ZM6.81863 20.6634C7.00257 20.8899 7.13706 21.1509 7.28018 21.4037C7.22756 21.3974 7.20352 21.3954 7.17993 21.3909C7.13502 21.3823 7.09193 21.3643 6.85446 21.289C6.81863 21.0607 6.80457 20.8602 6.81863 20.6634Z" fill="black"/>
<path d="M11.3529 7.69883C11.4981 7.80305 12.8111 9.89482 14.0009 11.8118C14.398 12.4519 14.7816 13.0725 15.1032 13.5931L15.112 13.6072C15.5171 14.2628 15.8228 14.7576 15.9322 14.9291L15.9326 20.0401L15.0154 21.4646C14.1735 21.5772 13.333 21.7042 12.4926 21.8313L11.8977 21.921L11.4044 21.9946C10.5886 21.9268 9.76144 21.7932 8.93972 21.6604C8.53464 21.595 8.13093 21.5297 7.73061 21.4727L6.81636 19.9725L6.80615 14.9434L11.3529 7.69883C11.5459 7.83734 13.8018 11.4871 15.0896 13.5708L15.1018 13.5905L15.1032 13.5931M15.9163 13.9626C15.9201 14.0971 15.9235 14.2072 15.9235 14.2785C15.9235 14.2797 15.9235 14.2808 15.9235 14.2819C14.4552 11.966 12.9989 9.6426 11.5546 7.31176C11.5521 7.01954 11.5453 6.72721 11.5385 6.43492L11.5301 6.06273C11.8068 6.18076 12.2681 6.58575 12.6441 6.91605C12.743 7.00285 12.8358 7.0845 12.9179 7.15441L12.9739 7.20157L13.0349 7.25151C15.0122 8.83589 16.9702 10.4439 18.9092 12.0752L18.9149 22.9843L16.2694 22.9828V21.7188L16.2656 20.0773L17.8607 17.516C17.5413 16.9459 17.1968 16.3873 16.8525 15.8293C16.6543 15.508 16.4563 15.1869 16.2633 14.8639C16.2608 14.6501 16.2681 14.3995 16.2767 14.1328C16.2783 14.0869 16.2796 14.0398 16.2812 13.9931C16.3055 13.2764 16.3327 12.472 16.2195 11.9564L16.0728 11.8922L16.0603 11.9024L16.0478 11.9125C16.0426 11.9167 16.0378 11.9211 16.0335 11.9259C15.8671 12.1008 15.8988 13.2874 15.9163 13.94V13.9446V13.9484V13.9556V13.9626C15.9201 14.0992 15.9233 14.2107 15.9235 14.2819M16.2812 13.9931L16.2808 14.0035L16.2794 14.0473C16.2696 14.3459 16.2606 14.6274 16.2633 14.8639M6.85446 21.289C6.85741 21.29 6.86036 21.2909 6.86331 21.2918C7.09374 21.365 7.13548 21.3824 7.17993 21.3909C7.20352 21.3954 7.22756 21.3974 7.28018 21.4037C7.13706 21.1509 7.00257 20.8899 6.81863 20.6634C6.80457 20.8602 6.81863 21.0607 6.85446 21.289ZM7.17993 21.3909C7.13502 21.3823 7.09193 21.3643 6.85446 21.289M18.4957 11.2909L18.5093 11.3022L18.6466 11.4164L18.7568 11.5084L19.2447 11.9142L19.2456 23.2519C16.647 25.3976 14.0322 27.5236 11.4017 29.6295C11.2348 29.6129 6.90209 26.0495 4.70117 24.2393L4.6397 24.1887C4.07563 23.7248 3.66103 23.3839 3.50771 23.2601L3.5 11.9204L11.3359 5.5C11.5913 5.53618 16.4831 9.61311 18.4957 11.2909ZM16.2719 15.5375C16.5919 15.9374 16.8668 16.4279 17.1331 16.9031C17.21 17.04 17.286 17.1755 17.3622 17.3073C17.4 17.3729 17.4379 17.4375 17.476 17.5008L17.3234 17.75L17.1648 18.0077C17.0265 18.2314 16.8875 18.4547 16.7473 18.6774L16.2633 19.4626C16.2628 19.0851 16.2597 18.7068 16.2565 18.3283C16.2488 17.3975 16.2413 16.465 16.2719 15.5375ZM11.1493 6.0834L11.1871 6.11588C11.2636 6.34285 11.2423 6.69323 11.2239 6.99662C11.2171 7.10797 11.2107 7.213 11.2096 7.30326L6.79663 14.3459C6.79776 14.237 6.80094 14.122 6.80525 14.003L6.80933 13.8939L6.81817 13.6805C6.84063 13.1483 6.86467 12.5767 6.80547 12.1291C6.78892 12.0038 6.75149 11.9585 6.65442 11.8851L6.55236 11.9044C6.39813 12.1443 6.44236 13.6294 6.4664 14.4385L6.47343 14.6887C6.47547 14.7621 6.47683 14.8231 6.47728 14.8689C5.94769 15.7345 5.42536 16.6044 4.90983 17.4784L6.48046 20.054L6.47388 21.5269L6.46867 22.9847L3.83114 22.9809L3.84112 12.081C5.41243 10.7256 7.03273 9.41775 8.65167 8.11111C9.487 7.43701 10.3219 6.76323 11.1493 6.0834ZM9.45616 22.0666C8.9599 21.9781 8.46411 21.8897 7.9708 21.8498L8.35229 22.4623C9.36929 24.0944 10.3888 25.7311 11.3613 27.3879C11.8544 26.5925 12.3427 25.7943 12.8254 24.9932C13.0438 24.6411 13.2604 24.2876 13.477 23.9341C13.9059 23.2337 14.3352 22.5332 14.7786 21.8431C14.5024 21.8822 14.1737 21.9389 13.824 21.9992C12.956 22.149 11.9574 22.3213 11.3046 22.3036C10.6916 22.2868 10.0737 22.1767 9.45616 22.0666ZM6.79912 21.6728L7.54622 21.7807C8.04701 22.6114 8.55642 23.4369 9.06582 24.2625L9.06786 24.2662L9.08147 24.2884C9.79546 25.4461 10.5094 26.6039 11.2001 27.7759C11.1996 27.9585 11.2001 28.1411 11.2017 28.3237C11.2037 28.5855 11.2076 28.8474 11.2134 29.109L9.72424 27.8901L4.10285 23.3047C4.7336 23.3135 5.36503 23.3116 5.99623 23.3097C6.26273 23.3089 6.52922 23.3081 6.79549 23.3081C6.81024 22.7636 6.80026 22.2177 6.79912 21.6728ZM15.7471 21.6974L15.7192 21.7001L15.2021 21.7797L11.5448 27.7318L11.5305 29.1047C11.7662 28.9126 12.0021 28.7211 12.2386 28.5302C12.5346 28.2912 12.8315 28.0531 13.1288 27.8157C14.9796 26.3306 16.8153 24.8272 18.6361 23.3052L15.936 23.3081C15.9376 23.1875 15.9426 23.0618 15.9478 22.9336L15.9485 22.9225C15.965 22.5243 15.9825 22.1032 15.9029 21.7404C15.8319 21.6871 15.8228 21.6882 15.7682 21.6949L15.7471 21.6974ZM6.47955 19.3L6.47842 19.4223L6.08763 18.7839C5.92161 18.4787 5.73608 18.1794 5.55123 17.8815C5.4689 17.7486 5.3868 17.616 5.30651 17.4833C5.53468 17.055 5.7853 16.6362 6.03569 16.218L6.22712 15.8978C6.29017 15.7915 6.35299 15.6851 6.41491 15.5785C6.54578 15.7776 6.50677 17.8332 6.48681 18.8837C6.48363 19.0523 6.48091 19.195 6.47955 19.3ZM15.5774 21.3364L15.6452 21.2154C15.7645 21.0015 15.8845 20.7867 16.0392 20.5962C16.053 20.7929 16.0385 21.0607 16.0031 21.2218C15.8092 21.293 15.7305 21.3182 15.5774 21.3364Z" stroke="black" stroke-width="0.2"/>
<path fill-rule="evenodd" clip-rule="evenodd" d="M15.112 13.6072C14.9514 13.3475 14.7754 13.0627 14.5898 12.7626C14.772 13.0572 14.945 13.3372 15.1031 13.593L15.112 13.6072Z" fill="black" stroke="black" stroke-width="0.2"/>
<path fill-rule="evenodd" clip-rule="evenodd" d="M15.9233 14.2819C15.923 14.2082 15.9199 14.0914 15.916 13.9483V13.9555C15.9199 14.0954 15.923 14.2094 15.9233 14.2819Z" fill="black"/>
<path d="M15.916 13.9555V13.9483C15.9199 14.0914 15.923 14.2082 15.9233 14.2819C15.923 14.2094 15.9199 14.0954 15.916 13.9555ZM15.916 13.9555V13.9625C15.9199 14.097 15.9233 14.2071 15.9233 14.2784" stroke="black" stroke-width="0.2"/>
<path fill-rule="evenodd" clip-rule="evenodd" d="M6.80811 13.9245C6.80244 14.0715 6.7979 14.2132 6.79654 14.3458C6.79767 14.237 6.80085 14.122 6.80516 14.003C6.80606 13.9772 6.8072 13.9506 6.80811 13.9245ZM6.4772 14.8688C6.47651 14.7779 6.47198 14.6264 6.46631 14.4384L6.47334 14.6886C6.47538 14.762 6.47674 14.8231 6.4772 14.8688Z" fill="black" stroke="black" stroke-width="0.2"/>
<path fill-rule="evenodd" clip-rule="evenodd" d="M15.9375 23.2313C15.94 23.1309 15.9443 23.0275 15.9486 22.9225L15.9479 22.9336C15.9439 23.0351 15.9398 23.1342 15.9375 23.2313Z" fill="black"/>
<path d="M15.9479 22.9336L15.9486 22.9225C15.9443 23.0275 15.94 23.1309 15.9375 23.2313C15.9398 23.1342 15.9439 23.0351 15.9479 22.9336ZM15.9479 22.9336C15.9452 22.999 15.9425 23.0634 15.9404 23.1272C15.9393 23.1596 15.9384 23.1921 15.9377 23.2239" stroke="black" stroke-width="0.2"/>
<path fill-rule="evenodd" clip-rule="evenodd" d="M6.41479 15.5784C6.34018 15.707 6.26442 15.8351 6.18799 15.9632L6.227 15.8977C6.29005 15.7914 6.35288 15.6851 6.41479 15.5784ZM6.4783 19.4223C6.4783 19.2938 6.48442 19.0046 6.49123 18.6394C6.48964 18.7254 6.48805 18.8072 6.48669 18.8837C6.48193 19.1319 6.4783 19.324 6.4783 19.4223Z" fill="black" stroke="black" stroke-width="0.2"/>
<path d="M55.7198 27.9833V27.2329H56.4814C56.7428 27.2329 56.9668 27.1993 57.1534 27.1321C57.3401 27.0723 57.4969 26.9641 57.6238 26.8073C57.7508 26.6505 57.859 26.4339 57.9486 26.1577L59.9422 19.7513H60.7598L58.6766 26.3929C58.5572 26.7737 58.3929 27.0798 58.1838 27.3113C57.9748 27.5502 57.7246 27.7219 57.4334 27.8265C57.1422 27.931 56.81 27.9833 56.4366 27.9833H55.7198ZM57.6462 25.5305V24.8249H58.7102V25.5305H57.6462ZM57.5454 25.5305L55.395 19.7513H56.2574L58.3294 25.5305H57.5454Z" fill="black"/>
<path d="M51.644 25.676V19.7512H52.316V22.2264H52.2488C52.2488 21.3603 52.4392 20.7219 52.82 20.3112C53.2008 19.8931 53.7982 19.684 54.612 19.684H54.8024V20.4456H54.4552C53.8131 20.4456 53.324 20.6136 52.988 20.9496C52.652 21.2782 52.484 21.7635 52.484 22.4056V25.676H51.644Z" fill="black"/>
<path d="M48.7389 25.6761V17.5001H49.5789V25.6761H48.7389ZM47.8765 18.1833V17.5001H49.5789V18.1833H47.8765Z" fill="black"/>
<path d="M44.4451 25.8664C43.9374 25.8664 43.4968 25.7806 43.1235 25.6088C42.7502 25.4296 42.444 25.1944 42.2051 24.9032C41.9662 24.6046 41.787 24.2723 41.6675 23.9064C41.5555 23.5406 41.4995 23.1635 41.4995 22.7752V22.6184C41.4995 22.2376 41.5555 21.8643 41.6675 21.4984C41.787 21.1326 41.9662 20.804 42.2051 20.5128C42.444 20.2216 42.7427 19.9902 43.1011 19.8184C43.467 19.6392 43.8926 19.5496 44.3779 19.5496C44.9976 19.5496 45.5128 19.6878 45.9235 19.964C46.3416 20.2403 46.6552 20.595 46.8643 21.028C47.0734 21.4536 47.1779 21.9128 47.1779 22.4056V22.8424H41.8803V22.1928H46.5955L46.3827 22.5176C46.3827 22.0771 46.3043 21.6926 46.1475 21.364C45.9982 21.028 45.7742 20.7667 45.4755 20.58C45.1843 20.3859 44.8184 20.2888 44.3779 20.2888C43.915 20.2888 43.5304 20.3971 43.2243 20.6136C42.9182 20.8302 42.6867 21.1176 42.5299 21.476C42.3806 21.8344 42.3059 22.2414 42.3059 22.6968C42.3059 23.1448 42.3806 23.5555 42.5299 23.9288C42.6867 24.2947 42.9219 24.5859 43.2355 24.8024C43.5566 25.019 43.9598 25.1272 44.4451 25.1272C44.9603 25.1272 45.3784 25.0115 45.6995 24.78C46.0206 24.5411 46.2184 24.2611 46.2931 23.94H47.0771C47.0024 24.3358 46.8456 24.6792 46.6067 24.9704C46.3678 25.2542 46.0654 25.4744 45.6995 25.6312C45.3336 25.788 44.9155 25.8664 44.4451 25.8664Z" fill="black"/>
<path d="M29.1834 26.3457C28.6757 26.3457 28.2351 26.2599 27.8618 26.0881C27.4885 25.9089 27.1823 25.6737 26.9434 25.3825C26.7045 25.0839 26.5253 24.7516 26.4058 24.3857C26.2938 24.0199 26.2378 23.6428 26.2378 23.2545V23.0977C26.2378 22.7169 26.2938 22.3436 26.4058 21.9777C26.5253 21.6119 26.7045 21.2833 26.9434 20.9921C27.1823 20.7009 27.481 20.4695 27.8394 20.2977C28.2053 20.1185 28.6309 20.0289 29.1162 20.0289C29.7359 20.0289 30.2511 20.1671 30.6618 20.4433C31.0799 20.7196 31.3935 21.0743 31.6026 21.5073C31.8117 21.9329 31.9162 22.3921 31.9162 22.8849V23.3217H26.6186V22.6721H31.3338L31.121 22.9969C31.121 22.5564 31.0426 22.1719 30.8858 21.8433C30.7365 21.5073 30.5125 21.246 30.2138 21.0593C29.9226 20.8652 29.5567 20.7681 29.1162 20.7681C28.6533 20.7681 28.2687 20.8764 27.9626 21.0929C27.6565 21.3095 27.425 21.5969 27.2682 21.9553C27.1189 22.3137 27.0442 22.7207 27.0442 23.1761C27.0442 23.6241 27.1189 24.0348 27.2682 24.4081C27.425 24.774 27.6602 25.0652 27.9738 25.2817C28.2949 25.4983 28.6981 25.6065 29.1834 25.6065C29.6986 25.6065 30.1167 25.4908 30.4378 25.2593C30.7589 25.0204 30.9567 24.7404 31.0314 24.4193H31.8154C31.7407 24.8151 31.5839 25.1585 31.345 25.4497C31.1061 25.7335 30.8037 25.9537 30.4378 26.1105C30.0719 26.2673 29.6538 26.3457 29.1834 26.3457Z" fill="black"/>
<path d="M22.2656 28.4289V27.6785H22.9376C23.2288 27.6785 23.4491 27.5926 23.5984 27.4209C23.7552 27.2566 23.8336 27.0177 23.8336 26.7041V20.2305H24.64V26.5473C24.64 27.0102 24.5766 27.3798 24.4496 27.6561C24.3302 27.9324 24.136 28.1302 23.8672 28.2497C23.5984 28.3692 23.24 28.4289 22.792 28.4289H22.2656ZM22.8704 20.9025V20.2305H24.64V20.9025H22.8704ZM23.9904 19.0321C23.7888 19.0321 23.6358 18.9798 23.5312 18.8753C23.4342 18.7633 23.3856 18.6252 23.3856 18.4609C23.3856 18.2966 23.4342 18.1622 23.5312 18.0577C23.6358 17.9457 23.7888 17.8897 23.9904 17.8897C24.192 17.8897 24.3414 17.9457 24.4384 18.0577C24.5355 18.1622 24.584 18.2966 24.584 18.4609C24.584 18.6252 24.5355 18.7633 24.4384 18.8753C24.3414 18.9798 24.192 19.0321 23.9904 19.0321Z" fill="black"/>
<path d="M78.1351 16.8031C77.6273 16.8031 77.1868 16.7173 76.8135 16.5455C76.4401 16.3663 76.134 16.1311 75.8951 15.8399C75.6561 15.5413 75.4769 15.209 75.3575 14.8431C75.2455 14.4773 75.1895 14.1002 75.1895 13.7119V13.5551C75.1895 13.1743 75.2455 12.801 75.3575 12.4351C75.4769 12.0693 75.6561 11.7407 75.8951 11.4495C76.134 11.1583 76.4327 10.9269 76.7911 10.7551C77.1569 10.5759 77.5825 10.4863 78.0679 10.4863C78.6876 10.4863 79.2028 10.6245 79.6135 10.9007C80.0316 11.177 80.3452 11.5317 80.5543 11.9647C80.7633 12.3903 80.8679 12.8495 80.8679 13.3423V13.7791H75.5703V13.1295H80.2855L80.0727 13.4543C80.0727 13.0138 79.9943 12.6293 79.8375 12.3007C79.6881 11.9647 79.4641 11.7034 79.1655 11.5167C78.8743 11.3226 78.5084 11.2255 78.0679 11.2255C77.6049 11.2255 77.2204 11.3338 76.9143 11.5503C76.6081 11.7669 76.3767 12.0543 76.2199 12.4127C76.0705 12.7711 75.9959 13.1781 75.9959 13.6335C75.9959 14.0815 76.0705 14.4922 76.2199 14.8655C76.3767 15.2314 76.6119 15.5226 76.9255 15.7391C77.2465 15.9557 77.6497 16.0639 78.1351 16.0639C78.6503 16.0639 79.0684 15.9482 79.3895 15.7167C79.7105 15.4778 79.9084 15.1978 79.9831 14.8767H80.7671C80.6924 15.2725 80.5356 15.6159 80.2966 15.9071C80.0577 16.1909 79.7553 16.4111 79.3895 16.5679C79.0236 16.7247 78.6055 16.8031 78.1351 16.8031Z" fill="black"/>
<path d="M70.5458 16.8032C70.1128 16.8032 69.717 16.7248 69.3586 16.568C69.0077 16.4037 68.7016 16.1797 68.4402 15.896C68.1864 15.6048 67.9885 15.2762 67.8466 14.9104C67.7122 14.537 67.645 14.1413 67.645 13.7232V13.5664C67.645 13.1632 67.7122 12.7786 67.8466 12.4128C67.981 12.0394 68.1714 11.7109 68.4178 11.4272C68.6717 11.136 68.9741 10.9082 69.325 10.744C69.6834 10.5722 70.0829 10.4864 70.5234 10.4864C71.0237 10.4864 71.4642 10.5946 71.845 10.8112C72.2258 11.0277 72.532 11.3413 72.7634 11.752C72.9949 12.1552 73.1181 12.6517 73.133 13.2416L72.7634 12.5472V8.43677H73.6034V16.6128H72.9314V13.9808H73.2002C73.1853 14.6005 73.0546 15.1232 72.8082 15.5488C72.5693 15.9669 72.252 16.2805 71.8562 16.4896C71.468 16.6986 71.0312 16.8032 70.5458 16.8032ZM70.6578 16.064C71.061 16.064 71.4232 15.9744 71.7442 15.7952C72.0728 15.616 72.3304 15.3621 72.517 15.0336C72.7037 14.6976 72.797 14.313 72.797 13.88V13.3424C72.797 12.9242 72.7037 12.5584 72.517 12.2448C72.3304 11.9237 72.0728 11.6736 71.7442 11.4944C71.4232 11.3152 71.0573 11.2256 70.6466 11.2256C70.2061 11.2256 69.8216 11.3338 69.493 11.5504C69.172 11.7594 68.9218 12.0469 68.7426 12.4128C68.5709 12.7786 68.485 13.1893 68.485 13.6448C68.485 14.1152 68.5746 14.5333 68.7538 14.8992C68.933 15.265 69.1869 15.5525 69.5154 15.7616C69.844 15.9632 70.2248 16.064 70.6578 16.064Z" fill="black"/>
<path d="M65.4575 16.6128V14.832H65.3231V12.7264C65.3231 12.2859 65.2074 11.9499 64.9759 11.7184C64.7445 11.4795 64.3861 11.36 63.9007 11.36C63.6767 11.36 63.449 11.3637 63.2175 11.3712C62.9935 11.3787 62.777 11.3899 62.5679 11.4048C62.3663 11.4123 62.1871 11.4235 62.0303 11.4384V10.6992C62.1946 10.6843 62.3626 10.6693 62.5343 10.6544C62.7061 10.6395 62.8815 10.632 63.0607 10.632C63.2474 10.6245 63.4266 10.6208 63.5983 10.6208C64.2031 10.6208 64.6885 10.6955 65.0543 10.8448C65.4277 10.9941 65.7002 11.2293 65.8719 11.5504C66.0437 11.864 66.1295 12.2821 66.1295 12.8048V16.6128H65.4575ZM63.4527 16.7696C63.0346 16.7696 62.665 16.6949 62.3439 16.5456C62.0229 16.3963 61.7727 16.1797 61.5935 15.896C61.4218 15.6123 61.3359 15.2688 61.3359 14.8656C61.3359 14.4699 61.4255 14.1339 61.6047 13.8576C61.7914 13.5813 62.0565 13.3723 62.3999 13.2304C62.7509 13.0811 63.1727 13.0064 63.6655 13.0064H65.4015V13.6448H63.6095C63.1391 13.6448 62.777 13.7605 62.5231 13.992C62.2767 14.216 62.1535 14.5109 62.1535 14.8768C62.1535 15.2501 62.2842 15.5488 62.5455 15.7728C62.8069 15.9893 63.1615 16.0976 63.6095 16.0976C63.8858 16.0976 64.1509 16.0491 64.4047 15.952C64.6586 15.8475 64.8714 15.6757 65.0431 15.4368C65.2149 15.1904 65.3082 14.8544 65.3231 14.4288L65.5695 14.776C65.5397 15.2165 65.4351 15.5861 65.2559 15.8848C65.0767 16.176 64.8341 16.3963 64.5279 16.5456C64.2218 16.6949 63.8634 16.7696 63.4527 16.7696Z" fill="black"/>
<path d="M51.1895 16.6128V10.6768H51.8615V13.1744H51.7271C51.7271 12.6293 51.8017 12.1589 51.9511 11.7632C52.1079 11.3675 52.3393 11.0613 52.6455 10.8448C52.9516 10.6208 53.3399 10.5088 53.8103 10.5088H53.8439C54.3143 10.5088 54.7025 10.6171 55.0087 10.8336C55.3148 11.0501 55.5425 11.3563 55.6919 11.752C55.8412 12.1477 55.9159 12.6219 55.9159 13.1744H55.6471C55.6471 12.6293 55.7217 12.1589 55.8711 11.7632C56.0279 11.3675 56.2593 11.0613 56.5655 10.8448C56.8791 10.6208 57.2711 10.5088 57.7415 10.5088H57.7751C58.2455 10.5088 58.6337 10.6171 58.9399 10.8336C59.2535 11.0501 59.4849 11.3563 59.6343 11.752C59.7911 12.1477 59.8695 12.6219 59.8695 13.1744V16.6128H59.0295V12.984C59.0295 12.4613 58.9025 12.0469 58.6487 11.7408C58.3948 11.4347 58.0289 11.2816 57.5511 11.2816C57.0583 11.2816 56.6663 11.4421 56.3751 11.7632C56.0913 12.0768 55.9495 12.5024 55.9495 13.04V16.6128H55.1095V12.984C55.1095 12.4613 54.9825 12.0469 54.7287 11.7408C54.4748 11.4347 54.1089 11.2816 53.6311 11.2816C53.1383 11.2816 52.7463 11.4421 52.4551 11.7632C52.1713 12.0768 52.0295 12.5024 52.0295 13.04V16.6128H51.1895Z" fill="black"/>
<path d="M46.0756 16.8032C45.6425 16.8032 45.2468 16.7248 44.8884 16.568C44.5375 16.4037 44.2313 16.1797 43.97 15.896C43.7161 15.6048 43.5183 15.2762 43.3764 14.9104C43.242 14.537 43.1748 14.1413 43.1748 13.7232V13.5664C43.1748 13.1632 43.242 12.7786 43.3764 12.4128C43.5108 12.0394 43.7012 11.7109 43.9476 11.4272C44.2015 11.136 44.5039 10.9082 44.8548 10.744C45.2132 10.5722 45.6127 10.4864 46.0532 10.4864C46.5535 10.4864 46.994 10.5946 47.3748 10.8112C47.7556 11.0277 48.0617 11.3413 48.2932 11.752C48.5247 12.1552 48.6479 12.6517 48.6628 13.2416L48.2932 12.5472V8.43677H49.1332V16.6128H48.4612V13.9808H48.73C48.7151 14.6005 48.5844 15.1232 48.338 15.5488C48.0991 15.9669 47.7817 16.2805 47.386 16.4896C46.9977 16.6986 46.5609 16.8032 46.0756 16.8032ZM46.1876 16.064C46.5908 16.064 46.9529 15.9744 47.274 15.7952C47.6025 15.616 47.8601 15.3621 48.0468 15.0336C48.2335 14.6976 48.3268 14.313 48.3268 13.88V13.3424C48.3268 12.9242 48.2335 12.5584 48.0468 12.2448C47.8601 11.9237 47.6025 11.6736 47.274 11.4944C46.9529 11.3152 46.5871 11.2256 46.1764 11.2256C45.7359 11.2256 45.3513 11.3338 45.0228 11.5504C44.7017 11.7594 44.4516 12.0469 44.2724 12.4128C44.1007 12.7786 44.0148 13.1893 44.0148 13.6448C44.0148 14.1152 44.1044 14.5333 44.2836 14.8992C44.4628 15.265 44.7167 15.5525 45.0452 15.7616C45.3737 15.9632 45.7545 16.064 46.1876 16.064Z" fill="black"/>
<path d="M36.6479 16.6128V10.688H37.3199V13.1744H37.1855C37.1855 12.6219 37.2677 12.1477 37.4319 11.752C37.5962 11.3563 37.8426 11.0501 38.1711 10.8336C38.4997 10.6171 38.9141 10.5088 39.4143 10.5088H39.4479C40.1946 10.5088 40.7509 10.744 41.1167 11.2144C41.4826 11.6773 41.6655 12.3307 41.6655 13.1744V16.6128H40.8367V12.9952C40.8367 12.48 40.6949 12.0656 40.4111 11.752C40.1274 11.4384 39.7317 11.2816 39.2239 11.2816C38.7013 11.2816 38.2794 11.4459 37.9583 11.7744C37.6447 12.0955 37.4879 12.5211 37.4879 13.0512V16.6128H36.6479Z" fill="black"/>
<path d="M33.9898 16.6128V14.832H33.8554V12.7264C33.8554 12.2859 33.7396 11.9499 33.5082 11.7184C33.2767 11.4795 32.9183 11.36 32.433 11.36C32.209 11.36 31.9812 11.3637 31.7498 11.3712C31.5258 11.3787 31.3092 11.3899 31.1002 11.4048C30.8986 11.4123 30.7194 11.4235 30.5626 11.4384V10.6992C30.7268 10.6843 30.8948 10.6693 31.0666 10.6544C31.2383 10.6395 31.4138 10.632 31.593 10.632C31.7796 10.6245 31.9588 10.6208 32.1306 10.6208C32.7354 10.6208 33.2207 10.6955 33.5866 10.8448C33.9599 10.9941 34.2324 11.2293 34.4042 11.5504C34.5759 11.864 34.6618 12.2821 34.6618 12.8048V16.6128H33.9898ZM31.985 16.7696C31.5668 16.7696 31.1972 16.6949 30.8762 16.5456C30.5551 16.3963 30.305 16.1797 30.1258 15.896C29.954 15.6123 29.8682 15.2688 29.8682 14.8656C29.8682 14.4699 29.9578 14.1339 30.137 13.8576C30.3236 13.5813 30.5887 13.3723 30.9322 13.2304C31.2831 13.0811 31.705 13.0064 32.1978 13.0064H33.9338V13.6448H32.1418C31.6714 13.6448 31.3092 13.7605 31.0554 13.992C30.809 14.216 30.6858 14.5109 30.6858 14.8768C30.6858 15.2501 30.8164 15.5488 31.0778 15.7728C31.3391 15.9893 31.6938 16.0976 32.1418 16.0976C32.418 16.0976 32.6831 16.0491 32.937 15.952C33.1908 15.8475 33.4036 15.6757 33.5754 15.4368C33.7471 15.1904 33.8404 14.8544 33.8554 14.4288L34.1018 14.776C34.0719 15.2165 33.9674 15.5861 33.7882 15.8848C33.609 16.176 33.3663 16.3963 33.0602 16.5456C32.754 16.6949 32.3956 16.7696 31.985 16.7696Z" fill="black"/>
<path d="M23.3862 16.6128V8.43677H24.2262V13.0624L23.9798 13.2528C23.9798 12.7002 24.0582 12.2186 24.215 11.808C24.3793 11.3973 24.622 11.08 24.943 10.856C25.2716 10.6245 25.6822 10.5088 26.175 10.5088H26.2198C26.9366 10.5088 27.478 10.744 27.8438 11.2144C28.2172 11.6848 28.4038 12.3381 28.4038 13.1744V16.6128H27.575V12.9952C27.575 12.465 27.4294 12.0469 27.1382 11.7408C26.847 11.4346 26.455 11.2816 25.9622 11.2816C25.4321 11.2816 25.0102 11.4533 24.6966 11.7968C24.383 12.1328 24.2262 12.577 24.2262 13.1296V16.6128H23.3862Z" fill="black"/>
<path d="M35.0474 25.5001L36.2226 20.1753H37.3146L38.677 25.5001H38.001L36.6386 20.2065H36.8882L35.7026 25.5001H35.0474ZM34.6002 25.5001V24.8657H35.5466V25.5001H34.6002ZM34.413 25.5001L32.8218 19.9985H33.5706L35.141 25.5001H34.413ZM38.1778 25.5001V24.8657H39.1034V25.5001H38.1778ZM38.5834 25.5001L39.9562 19.9985H40.6738L39.2698 25.5001H38.5834Z" fill="black"/>
</svg>
