<svg aria-hidden="true" style="position: absolute; width: 0; height: 0; overflow: hidden;" version="1.1" xmlns="http://www.w3.org/2000/svg" xmlns:xlink="http://www.w3.org/1999/xlink">
<defs>

<symbol id="icon-icon" viewBox="0 0 30 32">
<path d="M29.958 0l-1.92 0.64c-3.291 1.143-6.804 1.494-10.256 1.024-3.627-0.563-7.339-0.063-10.688 1.44-1.775 0.756-3.333 1.944-4.532 3.456s-2.001 3.3-2.332 5.2c-0.337 1.828-0.303 3.705 0.101 5.519s1.169 3.529 2.251 5.041c-0.096 0.336-0.192 0.672-0.272 1.008-0.65 2.763-0.972 5.593-0.96 8.432h3.2c0.15-2.324 0.466-4.633 0.944-6.912 2.22 1.199 4.709 1.81 7.232 1.776 2.353-0.002 4.681-0.475 6.848-1.392 12.176-5.2 10.576-22.496 10.576-23.216l-0.192-2.016zM18.326 22.288c-4.176 1.776-9.168 1.472-11.968-0.72 0.473-1.582 1.123-3.107 1.936-4.544 0.632-1.035 1.378-1.995 2.224-2.864 0.864-0.878 1.837-1.642 2.896-2.272 2.187-1.308 4.613-2.167 7.136-2.528v-1.6c-2.903-0.1-5.788 0.492-8.416 1.728-2.687 1.311-4.966 3.33-6.592 5.84-0.603 0.959-1.138 1.958-1.6 2.992-0.742-1.897-0.952-3.96-0.608-5.968 0.225-1.406 0.805-2.731 1.684-3.85s2.029-1.997 3.34-2.55c1.913-0.894 4-1.353 6.112-1.344 0.992 0 1.968 0.096 2.992 0.176 3.207 0.414 6.463 0.224 9.6-0.56-0.112 4.416-0.912 14.736-8.736 18.064z"></path>
</symbol>

<symbol id="icon-icon-1" viewBox="0 0 34 32">
<path d="M3.368 32h16.202c0.972 0.001 1.932-0.21 2.815-0.616s1.668-0.999 2.3-1.737l8.593-10.024c0.18-0.21 0.306-0.46 0.366-0.73s0.053-0.55-0.020-0.816c-0.073-0.266-0.211-0.51-0.402-0.711s-0.426-0.351-0.688-0.438l-3.315-1.105c-0.801-0.26-1.654-0.319-2.483-0.172s-1.609 0.498-2.271 1.019l-5.364 4.29-1.039-2.080c-0.557-1.121-1.416-2.064-2.481-2.722s-2.293-1.004-3.545-1h-8.667c-1.858 0-3.368 1.511-3.368 3.368v10.105c0 1.858 1.511 3.368 3.368 3.368zM3.368 18.526h8.667c1.285 0 2.439 0.712 3.013 1.861l0.753 1.507h-7.38v3.368h10.129c0.259-0.003 0.514-0.067 0.744-0.185l0.005-0.002 0.007-0.003h0.005l0.003-0.002h0.007l0.002-0.002c0.015 0.005 0.005-0.002 0.005-0.002 0.017 0 0.003-0.002 0.003-0.002h0.002l0.003-0.002 0.005-0.002 0.007-0.003 0.005-0.002 0.003-0.002c0.005 0 0.003-0.002 0.003-0.002l0.005-0.003 0.007-0.003 0.005-0.002 0.003-0.002h0.002l0.003-0.002 0.005-0.002 0.003-0.002c0.015-0.002 0.005-0.002 0.005-0.002l0.003-0.002c0.065-0.039 0.127-0.083 0.185-0.131l6.983-5.587c0.441-0.35 1.049-0.46 1.583-0.281l0.938 0.313-6.961 8.123c-0.32 0.364-0.714 0.655-1.155 0.855s-0.92 0.303-1.405 0.304h-16.202v-10.105zM23.55 0c-0.275 0.003-1.694 0.066-3.34 1.187-1.602-1.091-2.988-1.179-3.315-1.186l-0.051-0.002h-0.007c-1.349 0-2.619 0.527-3.569 1.479-0.953 0.955-1.48 2.223-1.48 3.574s0.527 2.619 1.45 3.544l5.75 6.040c0.158 0.164 0.348 0.295 0.558 0.384s0.436 0.135 0.664 0.135c0.228-0 0.454-0.046 0.663-0.136s0.399-0.22 0.557-0.385l5.72-6.009c0.955-0.953 1.48-2.221 1.48-3.572s-0.527-2.619-1.479-3.572c-0.468-0.471-1.024-0.844-1.637-1.098s-1.27-0.384-1.934-0.382h-0.032zM25.263 5.053c0 0.45-0.175 0.872-0.524 1.221l-4.529 4.758-4.559-4.788c-0.318-0.318-0.493-0.741-0.493-1.191s0.175-0.872 0.495-1.192c0.305-0.31 0.719-0.487 1.154-0.492 0.042 0.002 0.845 0.054 1.797 0.817 0.136 0.109 0.275 0.234 0.416 0.374l1.191 1.191 1.191-1.191c0.141-0.14 0.28-0.264 0.416-0.374 0.891-0.716 1.644-0.805 1.772-0.815 0.219-0 0.437 0.043 0.639 0.128s0.387 0.208 0.541 0.364c0.318 0.318 0.493 0.741 0.493 1.191z"></path>
</symbol>

<symbol id="icon-icon-2" viewBox="0 0 29 32">
<path d="M4.8 32h24v-3.2h-23.981c-0.739-0.019-1.619-0.312-1.619-1.6s0.88-1.581 1.619-1.6h23.981v-22.4c0-1.765-1.435-3.2-3.2-3.2h-20.8c-1.93 0-4.8 1.278-4.8 4.8v22.4c0 3.522 2.87 4.8 4.8 4.8zM3.2 4.8c0-1.288 0.88-1.581 1.6-1.6h20.8v19.2h-22.4v-17.6z"></path>
<path d="M8 6.4h14.4v3.2h-14.4v-3.2z"></path>
</symbol>
</defs>
</svg>
