<svg width="24" height="24" viewBox="0 0 24 24" fill="none" xmlns="http://www.w3.org/2000/svg">
<path d="M21.8798 2.15002L20.6798 2.55002C18.6232 3.26457 16.427 3.48384 14.2698 3.19002C12.0029 2.83824 9.68267 3.15084 7.58975 4.09002C6.48023 4.56247 5.50651 5.30494 4.75723 6.24983C4.00795 7.19473 3.50692 8.31203 3.29975 9.50002C3.08902 10.6425 3.11058 11.8157 3.36314 12.9496C3.6157 14.0836 4.09408 15.155 4.76975 16.1C4.70975 16.31 4.64975 16.52 4.59975 16.73C4.19359 18.4571 3.99221 20.2259 3.99975 22H5.99975C6.09375 20.5479 6.29092 19.1042 6.58975 17.68C7.97719 18.4292 9.5331 18.8113 11.1098 18.79C12.5802 18.789 14.0356 18.4932 15.3898 17.92C22.9998 14.67 21.9998 3.86002 21.9998 3.41002L21.8798 2.15002ZM14.6098 16.08C11.9998 17.19 8.87975 17 7.12975 15.63C7.42552 14.6411 7.8314 13.6884 8.33975 12.79C8.73495 12.1434 9.20118 11.543 9.72975 11C10.2699 10.4512 10.8782 9.97398 11.5398 9.58002C12.9068 8.76258 14.423 8.22547 15.9998 8.00002V7.00002C14.1855 6.93722 12.3824 7.30744 10.7398 8.08002C9.06017 8.89957 7.63578 10.1615 6.61975 11.73C6.24292 12.3291 5.90876 12.954 5.61975 13.6C5.15627 12.4144 5.02489 11.1248 5.23975 9.87002C5.38053 8.99156 5.74265 8.1634 6.292 7.46359C6.84135 6.76378 7.55984 6.21536 8.37975 5.87002C9.57537 5.31118 10.88 5.0243 12.1998 5.03002C12.8198 5.03002 13.4298 5.09002 14.0698 5.14002C16.0741 5.39863 18.1091 5.27992 20.0698 4.79002C19.9998 7.55002 19.4998 14 14.6098 16.08Z" fill="black"/>
</svg>
